<?xml version="1.0" encoding="utf-8"?>
<!-- Generator: Adobe Illustrator 22.1.0, SVG Export Plug-In . SVG Version: 6.00 Build 0)  -->
<svg version="1.0" id="レイヤー_1" xmlns="http://www.w3.org/2000/svg" xmlns:xlink="http://www.w3.org/1999/xlink" x="0px"
	 y="0px" width="150px" height="100.2px" viewBox="0 0 150 100.2" style="enable-background:new 0 0 150 100.2;"
	 xml:space="preserve">
<style type="text/css">
	.st0{clip-path:url(#SVGID_2_);fill:#E62318;}
	.st1{clip-path:url(#SVGID_2_);}
	.st2{clip-path:url(#SVGID_2_);fill:#FFFFFF;}
	.st3{fill:#00ADC0;}
</style>
<g>
	<g>
		<g>
			<path d="M52.1,16.6l-7,1.4l-0.6-0.7c-2.5,3.9,0,8.3,0,8.3l0.4-0.4c0.2,0.2,1.3,0.4,1.3,0.4l4.8-0.4l0.9,0.9
				c0.9-0.1,2.1-1.2,2.4-1.8c0.2-0.5,0.7-5.5,0.7-5.5L52.1,16.6z M46.9,19.6v1.2l-1.1,0.3l0-1.3L46.9,19.6z M45.7,23.9l0.1-1.4
				l1.1,0l0,1.3L45.7,23.9z M51,23.5l-2.4-0.1l0.1-1.2c0,0,1.9-0.6,1.9-1.1c0.1-0.4-0.7-0.9-0.7-0.9l-1,0.1l0.1-1
				c0.1-0.1,1.1-0.4,1.6-0.4c0.4,0,0.6,0.3,0.6,0.3L51,23.5z"/>
			<path d="M45.9,16.6C45.9,16.6,45.9,16.6,45.9,16.6C45.9,16.6,45.9,16.6,45.9,16.6"/>
			<path d="M45.6,9.8c0.1,0.3,0.6,0.7,0.6,0.7c0.5-0.2,4.4-0.9,5.3-1.1c0.9-0.2,1.3-0.8,1.3-0.8c0.1-0.5,0.6-0.9,0.6-0.9
				c0.1-0.6-1-1.2-1-1.2c-0.7,0.4-7,0.8-7,0.8C43.7,9,45.6,9.8,45.6,9.8"/>
			<path d="M46.7,16.1c1.1-0.5,3.5-0.6,3.5-0.6l1.2,0.1c0,0,1.8-1.3,1.8-2.5c0-1.1-1.9-2.7-2.2-2.5c-0.3,0.2-4.4,1.1-4.4,1.1
				l-0.6-0.3c-0.2,0.2-0.6,0.3-0.7,0.5c-0.9,1.9,0.6,4.3,0.7,4.6C45.9,16.5,46.1,16.4,46.7,16.1 M49.8,12.5v1.4l-2.9,0.6l-0.1-1.1
				C46.8,13.4,49.4,12.4,49.8,12.5"/>
			<path d="M44.3,16.6c0.3-1.6-1.9-2.2-1.9-2.2c0.2-0.2,1.2-2.3,0.9-2.6c-0.3-0.3-0.6-1.1-1.5-1.5c-1-0.4-1.8,0.4-1.8,0.4
				c-1.4,1.8-5.1,2.8-5.1,2.8c-0.6,0.2-0.5,1-0.5,1c0.6,0.1,1.3,1.6,2,1.6h1.1L34,23.4c0.2-0.3,1.5-1.1,1.5-1.1
				c1.4-0.1,2.2-1.4,2.2-1.4l0.8-0.3l0.8-0.9c0,1.7-0.5,5-0.5,5l0.6,1.2l0.4-0.1c0,0-0.1,0.6,0.7,0.5c0.8-0.1,1.3-0.9,1.3-0.9
				l0.4-8.3C42.3,17.1,44,18.2,44.3,16.6"/>
			<path d="M40.8,9.2c0.7,0.4,1.9,0.9,2.7,0c0.7-0.9,0.2-2.2-0.2-2.8C42.9,5.9,42,5.9,41,5.8c-1-0.1-2.9,0.5-2.9,0.5
				C38.2,8,40.1,8.8,40.8,9.2"/>
			<path d="M115.7,15.4c-0.1-1.3-2.3-3.7-2.8-3.9c-0.3-0.1-0.7-0.1-1.4-0.1c0.7-1.1,1.3-2.2,1.4-2.4c0.2-0.3,0.1-1-0.1-1.2
				c-0.1-0.3-0.4-1.1-0.4-1.1S111.8,6,111.2,6c-0.6-0.1-1.6,0.9-1.6,0.9s0.1,0.7,0.1,1.1c-0.2,1.1-0.7,2.6-1.3,4.2c0,0,0,0-0.1,0
				c-2.8,0.8-2.8,1.2-2.8,1.2l-0.4,0.7c0.4,1.3,1.6,1.7,1.6,1.7s0.1,0,0.1,0c-0.8,1.8-1.7,3.3-2.2,4c-0.2,0.2-0.3,0.4-0.4,0.7
				c0.1-4.6,0.3-10.7,0.6-11h-0.1c0,0,0,0,0-0.1c-0.3-0.8-1.9-2.5-2.4-2.5c-0.5,0-0.9,0.6-0.9,0.6L99,8.6c0,0,0,0.1,0.1,0.3
				c-0.3-0.6-0.7-0.9-0.7-0.9c-0.1,0-1.3,0.6-1.2,1.1c0.1,0.5-0.3,1.6-0.5,1.7c-0.2,0.1-0.2,9.3,0.2,9.5c0.3,0.2,0.4,0.7,0.4,1
				c-1.3,0.5-2.6,1-2.7,1.1c-0.4,0.2-0.8,0.9-0.8,0.9s1,0.8,1.8,0.8c0.8,0,4.4-2.2,6.1-2.3l-0.1,3.2c0,0,0.5,0.8,0.7,1.1
				c0.1,0.3,0.4,0.3,0.6,0.3c0.2,0,1-0.7,1.1-1c0-0.1,0.1-1.2,0.1-2.8c0.2-0.1,0.3-0.2,0.3-0.2l1-0.1c0.2-0.2,0.6-0.6,0.9-1.1
				c0.3,0.1,1.5,0.6,1.5,0.6l-0.4,0.2c2.3,0.7,0.8,2.4,0.8,2.4c0.8,0.1,0.7,0.7,1.5,0.7c0.8,0,1.9-0.4,1.9-0.4
				C115.4,23.4,115.7,16.8,115.7,15.4 M101.8,19.9l-0.8,0c0,0-0.7,0.3-1.7,0.7c0-0.4,0.2-1.3,0.3-2.4c0.8-0.3,2.3-0.8,2.3-0.8
				s0-0.1,0-0.2L101.8,19.9z M101.9,16c0-0.1,0-0.2-0.1-0.3c-0.1-0.2-0.6-0.3-0.7-0.3c-0.1,0-0.8,0.4-1.4,0.7
				c0.1-0.6,0.1-1.2,0.2-1.8c0.7-0.2,1.8-0.6,2.1-0.7L101.9,16z M102,11.9c-0.2-0.2-0.6-0.2-0.7-0.2c-0.1,0-0.8,0.4-1.4,0.7
				c0-0.3,0-0.6,0-0.8c0-0.3-0.1-0.5-0.1-0.8c0.1,0.1,0.1,0.1,0.2,0c0.4-0.4,2-1.2,2-1.2s0,0,0.1,0L102,11.9z M110,21.6
				c-0.6,0.3-2.4-0.5-3.3-1c1.1-1.8,2.4-4.5,3-5.8c0.1,0,0.1,0,0.2,0c0.9-0.2,2.2-0.6,2.3,0.1C112.4,16.5,111,21.2,110,21.6"/>
		</g>
		<g>
			<defs>
				<path id="SVGID_1_" d="M60.1,15.1c0,8.3,6.7,15.1,15.1,15.1c8.3,0,15.1-6.7,15.1-15.1C90.2,6.7,83.5,0,75.1,0
					C66.8,0,60.1,6.7,60.1,15.1"/>
			</defs>
			<clipPath id="SVGID_2_">
				<use xlink:href="#SVGID_1_"  style="overflow:visible;"/>
			</clipPath>
			<path class="st0" d="M90.2,15.1c0,8.3-6.7,15.1-15.1,15.1c-8.3,0-15.1-6.7-15.1-15.1C60.1,6.7,66.8,0,75.1,0
				C83.5,0,90.2,6.7,90.2,15.1"/>
			<path class="st1" d="M90.2,22.3c0-0.1,0-0.1-0.1-0.2c-0.1-0.2-0.3-0.4-0.4-0.5c-0.1-0.1-0.2-0.1-0.3-0.2c0,0,0,0-0.1-0.1
				c0,0-0.1-0.1-0.2-0.1c-0.1-0.1-0.2-0.1-0.2-0.2c0,0-0.1-0.1-0.2-0.1c-0.1,0-0.1-0.1-0.2-0.1c-0.2-0.1-0.4-0.2-0.7-0.4
				c-0.1-0.1-0.3-0.1-0.4-0.2c-0.3-0.1-0.6-0.2-0.8-0.4c-0.3-0.1-0.6-0.2-0.9-0.4c-0.1,0-0.1,0-0.2-0.1c0,0-0.1,0-0.2-0.1
				c-0.1-0.1-0.3-0.1-0.4-0.1c-0.1,0-0.2-0.1-0.3-0.1c-0.1,0-0.3-0.1-0.5-0.2c0,0-0.1-0.1-0.1-0.1c0-0.1,0-0.3,0.1-0.4
				c0.1-0.1,0.2-0.2,0.3-0.3c0.2-0.2,0.3-0.4,0.4-0.6c0.2-0.4,0.5-0.7,0.6-1.1c0,0,0.1-0.1,0.1-0.2c0-0.1,0.1-0.2,0.1-0.3
				c0.1-0.2,0.1-0.3,0.2-0.5c0-0.1,0-0.1,0.1-0.2c0,0,0-0.1,0.1-0.1c0-0.1,0.1-0.1,0.1-0.2c0-0.1,0.1-0.2,0.1-0.3
				c0-0.1,0.1-0.2,0.1-0.2c0-0.1,0-0.1,0-0.2c0-0.1,0-0.1,0-0.2c0,0,0-0.1-0.1-0.1c-0.1-0.1-0.1-0.1-0.2-0.2
				c-0.1-0.1-0.3-0.2-0.5-0.3c-0.1-0.1-0.2-0.2-0.4-0.2c-0.2-0.1-0.4-0.3-0.6-0.4c-0.1,0-0.1,0-0.1-0.1c-0.4-0.3-0.8-0.5-1.1-0.8
				c-0.2-0.1-0.3-0.2-0.5-0.3c-0.2-0.1-0.5-0.3-0.7-0.4c-0.1-0.1-0.2-0.1-0.3-0.2c0,0,0-0.1-0.1-0.1c0-0.1,0-0.3,0.1-0.4
				c0-0.2,0-0.4,0-0.6c0-0.2,0-0.3,0-0.5c0-0.1,0-0.2,0-0.3c0-0.1,0-0.2,0-0.3c0-0.1,0-0.2-0.1-0.4c0-0.2,0-0.3-0.1-0.5
				C82,8.1,82,8,82,7.9c0-0.1,0-0.1,0-0.2c-0.1-0.2-0.1-0.3-0.2-0.5c0-0.1-0.1-0.2-0.1-0.2c0-0.1-0.1-0.1-0.1-0.2c0,0,0-0.1-0.1-0.1
				c0-0.1-0.1-0.1-0.1-0.1c0-0.1-0.1-0.1-0.1-0.2C81.1,6.1,81,6,81,5.9c-0.1-0.1-0.1-0.2-0.2-0.3c0,0-0.1-0.1-0.1-0.1
				c0,0-0.1-0.1-0.1-0.1c0,0-0.1-0.1-0.1-0.1c0,0-0.1-0.1-0.1-0.1C80.2,5.1,80.1,5.1,80,5c-0.2-0.1-0.4-0.3-0.6-0.4
				c-0.1-0.1-0.2-0.1-0.3-0.2C79,4.3,79,4.2,78.9,4.2c-0.1,0-0.1-0.1-0.2-0.1c-0.4-0.2-0.7-0.3-1.1-0.5c-0.1,0-0.2-0.1-0.3-0.1
				c-0.2,0-0.3-0.1-0.5-0.1c-0.1,0-0.2,0-0.3,0c-0.1,0-0.2,0-0.3-0.1c-0.1,0-0.2,0-0.4,0c-0.1,0-0.1,0-0.2-0.1
				c-0.1-0.1-0.1-0.2-0.1-0.3c0-0.1,0-0.1-0.1-0.1c-0.1-0.1-0.1-0.2-0.3-0.2v0c-0.2,0-0.3,0.3-0.3,0.5c0,0.1,0,0.1-0.1,0.1
				c0,0.1-0.1,0.1-0.1,0.1c0,0,0,0-0.1,0c-0.1,0-0.2,0-0.2,0c0,0,0,0,0,0c0,0-0.1,0-0.1,0c0,0-0.1,0-0.1,0c-0.1,0-0.1,0-0.2,0
				c0,0,0,0,0,0c0,0-0.1,0-0.1,0c-0.1,0-0.2,0-0.3,0.1c0,0-0.1,0-0.1,0c-0.1,0-0.2,0-0.2,0c-0.3,0.1-0.5,0.1-0.7,0.2
				c0,0-0.1,0-0.1,0c-0.1,0-0.2,0.1-0.3,0.1c-0.1,0-0.2,0.1-0.3,0.1c-0.1,0-0.1,0.1-0.2,0.1c-0.1,0-0.2,0.1-0.3,0.1
				c-0.1,0.1-0.1,0.1-0.2,0.1c-0.2,0.1-0.3,0.2-0.5,0.3c-0.1,0-0.1,0.1-0.2,0.1c-0.1,0.1-0.2,0.2-0.3,0.2c-0.5,0.4-0.9,1-1.3,1.5
				c-0.1,0.2-0.2,0.3-0.3,0.5c0,0,0,0.1-0.1,0.1c0,0.1-0.1,0.2-0.1,0.3c-0.1,0.3-0.2,0.7-0.3,1.1c0,0.1,0,0.1,0,0.2
				c0,0.1,0,0.1,0,0.2c0,0.1,0,0.1,0,0.2c0,0.3,0,0.5,0,0.7v0.3c0,0.1,0,0.3,0,0.4c0,0.1,0,0.2,0,0.3c0,0.1,0,0.2,0,0.3
				c0,0,0,0.1-0.1,0.1c0,0-0.1,0.1-0.1,0.1c-0.1,0.1-0.2,0.1-0.3,0.2c-0.2,0.1-0.4,0.3-0.6,0.4c-0.4,0.3-0.8,0.6-1.3,0.8
				c-0.2,0.2-0.4,0.3-0.6,0.4c0,0-0.1,0-0.1,0.1c-0.1,0.1-0.2,0.1-0.2,0.2c-0.2,0.1-0.4,0.3-0.6,0.4c-0.1,0.1-0.3,0.1-0.4,0.2
				c0,0.1-0.1,0.1-0.1,0.2c0,0.1,0,0.2,0.1,0.3c0.1,0.3,0.2,0.5,0.3,0.7c0,0.1,0.1,0.2,0.1,0.3c0,0.1,0.1,0.1,0.1,0.2
				c0,0.1,0.1,0.1,0.1,0.2c0.1,0.2,0.1,0.3,0.2,0.5c0,0.1,0.1,0.1,0.1,0.2c0,0.1,0.1,0.1,0.1,0.2c0.1,0.1,0.1,0.2,0.2,0.4
				c0.1,0.1,0.1,0.2,0.1,0.2c0.1,0.1,0.1,0.2,0.2,0.3c0.1,0.1,0.2,0.2,0.2,0.3c0.1,0.1,0.1,0.1,0.2,0.2c0.1,0.1,0.2,0.1,0.2,0.2
				c0,0.1,0,0.1,0,0.2c0,0.1,0,0.2-0.1,0.2c-0.1,0.2-0.1,0.3-0.2,0.5c0,0-0.1,0.1-0.1,0.1c-0.1,0-0.2,0-0.3,0c-0.1,0-0.2,0-0.3,0
				c-0.1,0-0.2,0-0.3,0c-0.2,0-0.4,0.3-0.6,0.5c-0.1,0.1-0.2,0.2-0.4,0.3c0,0-0.1,0.1-0.1,0.1c0,0-0.1,0-0.1,0.1c-0.1,0-0.3,0-0.4,0
				c0,0-0.1,0-0.2,0c-0.1,0-0.1,0-0.2,0c-0.1,0-0.2,0-0.4,0c-0.1,0-0.3,0-0.3,0c0,0,0,0-0.1,0c-0.2,0-0.3,0.2-0.5,0.3c0,0,0,0-0.1,0
				c-0.1,0-0.3,0-0.4-0.1c-0.2,0-0.3,0-0.5-0.1c-0.1,0-0.2,0-0.3-0.1c-0.1,0-0.3-0.1-0.3,0c-0.5,0-0.1,0.6,0,0.8
				c0,0,0.1,0.1,0.1,0.2c0,0.1,0.1,0.1,0.1,0.2c0,0,0.1,0.1,0.1,0.1c0,0.1,0.1,0.2,0.2,0.2c0.1,0.2,0.3,0.3,0.4,0.4
				c0.1,0,0.1,0.1,0.2,0.1c0.1,0,0.2,0.1,0.2,0.2c0,0.1,0,0.1,0.1,0.2c0,0.1,0.1,0.2,0.1,0.2c0,0.1,0.1,0.2,0.1,0.3
				c0,0.1,0.1,0.1,0.1,0.1c0,0,0.1,0.1,0.1,0.1c0,0.1,0,0.1,0,0.2c0,0.1,0,0.2,0.1,0.2c0.2,0.1,0.5-0.1,0.6-0.2
				c0.1,0,0.3-0.1,0.4-0.1c0.1,0,0.2-0.1,0.4-0.1c0.1,0,0.2,0,0.3,0.1c0.2,0,0.4,0.1,0.6,0.1c0.1,0,0.1,0,0.2,0
				c0.2,0,0.4,0.1,0.5,0.1c0.1,0,0.2,0,0.4,0c0.1,0,0.1,0,0.2,0c0.1,0,0.2,0,0.2,0c0.1,0,0.1,0,0.2,0c0.1,0,0.2,0,0.3,0
				c0.1,0,0.3,0,0.4,0c0.1,0,0.2,0,0.2,0c0.1,0,0.2,0,0.4,0c0.2,0,0.3,0,0.5,0c0.1,0,0.1,0,0.2,0c0.1,0,0.3,0,0.5,0
				c0.1,0,0.2,0,0.2-0.1c0.1,0,0.2-0.1,0.3-0.1c0,0,0,0,0,0c0.1,0,0.2,0.1,0.2,0.2c0.1,0.1,0.1,0.1,0.2,0.2c0.1,0.1,0.2,0.1,0.3,0.2
				c0.1,0,0.2,0,0.2,0.1c0,0,0,0,0,0c0.1,0.1,0,0.2,0,0.3c0,0.1,0,0.1,0.1,0.2c0.1,0.2,0.2,0.3,0.4,0.4c0.1,0.1,0.2,0.2,0.4,0.2
				c0.1,0.1,0.3,0.2,0.4,0.2c0.3,0,0.7,0,1,0c0.1,0,0.1,0,0.2-0.1c0.2,0,0.4,0,0.5-0.1c0.2-0.1,0.3-0.2,0.5-0.2c0.1,0,0.2,0,0.2,0
				c0.1,0,0.1,0,0.2,0.1c0.1,0,0.1,0,0.2,0.1c0.1,0,0.1,0,0.2,0c0.1,0,0.2-0.1,0.3-0.2c0.1-0.1,0.1-0.2,0.3-0.2c0.1,0,0.2,0,0.4,0
				c0.2,0,0.3,0,0.5,0c0.1,0,0.2,0,0.2,0c0.1,0,0.1,0.1,0.2,0.1c0.1,0,0.2,0,0.3,0c0.1,0,0.1,0,0.2,0c0.1,0,0.1,0,0.2,0H77
				c0.2,0,0.3,0,0.5,0c0.1,0,0.1,0,0.2,0c0.1,0,0.1,0,0.1,0c0.1-0.1,0.3-0.2,0.4-0.2c0.1,0,0.1-0.1,0.2-0.1c0.2-0.1,0.3-0.2,0.5-0.4
				c0.1-0.1,0.1-0.2,0.2-0.3c0,0,0-0.1,0.1-0.2c0,0,0.1,0,0.2-0.1c0,0,0.1,0,0.2,0h0.2c0,0,0.1,0,0.1,0c0.2,0,0.3,0,0.5,0
				c0.1,0,0.3-0.1,0.4-0.1c0.1,0,0.1,0,0.2,0c0.1-0.1,0.2-0.2,0.4-0.2c0.1,0,0.2,0.1,0.3,0.1c0,0,0.1,0,0.1,0.1c0.1,0,0.3,0,0.4,0
				c0.3,0,0.6,0,0.9,0c0.3,0,0.5,0,0.8,0c0.2,0,0.3,0,0.5-0.1c0.2,0,0.4,0,0.6,0c0.1,0,0.2,0,0.3,0c0.2,0,0.3,0,0.4,0
				c0.2,0,0.5-0.1,0.8-0.1c0.1,0,0.2,0,0.3-0.1c0.1-0.1,0.2-0.1,0.3-0.2c0.1-0.1,0.2-0.2,0.3-0.3c0.1,0,0.2,0,0.4,0
				c0.1,0,0.3,0,0.4-0.1c0.1,0,0.1,0,0.2-0.1c0,0,0.1,0,0.1,0c0.1,0,0.3-0.1,0.4-0.1c0.1,0,0.1-0.1,0.2-0.1c0.1,0,0.2-0.1,0.2-0.1
				c0.1,0,0.1-0.1,0.2-0.1c0.1,0,0.2-0.1,0.3-0.1c0.1,0,0.1-0.1,0.2-0.1c0.1-0.1,0.3-0.2,0.3-0.3C90.2,22.5,90.2,22.4,90.2,22.3"/>
			<path class="st2" d="M85.6,15c0.1-0.1,0.2-0.2,0.4-0.3c0,0,0.1,0,0.1,0c0.1,0.1-0.1,0.6-0.2,0.7c0,0.1,0,0.1-0.1,0.2
				c0,0.1,0,0.1-0.1,0.2c0,0.1-0.1,0.1-0.1,0.2c0,0.1-0.1,0.2-0.2,0.3c0,0,0,0.1-0.1,0.1c0,0.1-0.1,0.2-0.1,0.2
				c-0.1,0.1-0.1,0.2-0.2,0.3c-0.1,0.2-0.2,0.3-0.3,0.5c-0.1,0.1-0.4,0.7-0.5,0.6c-0.1-0.1-0.1-0.5-0.2-0.6c0-0.1,0-0.1-0.1-0.2
				c0-0.1-0.1-0.2-0.1-0.3c0-0.1,0-0.1-0.1-0.2c0-0.1-0.1-0.2-0.1-0.3c0-0.1,0.1-0.1,0.2-0.2c0.1-0.1,0.3-0.2,0.4-0.3
				c0.2-0.1,0.3-0.3,0.4-0.4c0.1-0.1,0.1-0.1,0.2-0.2C85.2,15.3,85.4,15.1,85.6,15"/>
			<path class="st2" d="M82.4,16.7c0.1-0.1,0.2-0.2,0.4-0.3c0.3-0.3,0.7-0.5,1-0.8c0.1-0.1,0.3-0.2,0.4-0.3c0.1,0,0.1-0.1,0.2-0.1
				c0.2-0.1,0.4-0.3,0.6-0.4c0.1,0,0.2-0.1,0.2-0.1c0,0,0,0,0,0.1c0,0.1-0.1,0.1-0.2,0.2c-0.2,0.2-0.4,0.4-0.6,0.5
				c-0.1,0.1-0.3,0.2-0.4,0.3c-0.2,0.1-0.3,0.3-0.5,0.4c-0.1,0.1-0.2,0.2-0.4,0.3c-0.1,0.1-0.2,0.2-0.3,0.2
				c-0.1,0.1-0.3,0.2-0.4,0.3c-0.1,0-0.1,0.1-0.2,0.2c-0.2,0.1-0.3,0.3-0.5,0.3c-0.1,0-0.1,0.1-0.2,0.1v0c0,0,0,0,0,0
				c0-0.1,0.1-0.2,0.2-0.2c0.1-0.1,0.1-0.1,0.2-0.2C82.1,16.9,82.3,16.8,82.4,16.7"/>
			<path class="st2" d="M68.2,13.4c0.1-0.1,0.2-0.2,0.3-0.1c0,0,0,0.1,0,0.2c0,0.1,0,0.2,0,0.4c0,0.1,0,0.1,0.1,0.2
				c0.1,0.3,0.4,0.7,0.7,0.8c0.1,0,0.2,0,0.3,0c0.1-0.1,0.2-0.2,0.1-0.3c0-0.1-0.1-0.2-0.1-0.2c0,0-0.1-0.1-0.1-0.1
				c-0.1-0.1-0.1-0.3-0.1-0.5c0-0.1,0-0.2,0-0.3c0-0.1,0.1-0.3,0-0.3c-0.2-0.1-0.3,0.3-0.3,0.5c0,0.1,0,0.2,0,0.3c0,0,0,0.1-0.1,0.1
				c-0.1,0-0.1-0.1-0.1-0.2c0-0.2-0.1-0.4,0-0.5c0-0.1,0.1-0.2,0.1-0.2c0-0.1,0.2-0.3,0.2-0.3c0-0.2-0.4,0.3-0.4,0
				c0-0.2,0.1-0.4,0.3-0.5c0.3-0.2,0.6,0.2,0.8,0.4c0.1,0.1,0.2,0.2,0.2,0.2c0.1,0,0.1-0.1,0.2-0.1c0.1-0.1,0.1-0.2,0.2-0.3
				c0-0.1,0.1-0.2,0.1-0.4c0,0,0-0.1,0-0.1c0-0.1,0-0.2,0.1-0.3c0-0.1,0-0.2,0-0.3c0-0.1,0-0.3,0.1-0.4c0-0.1,0-0.2,0-0.3
				c0-0.1,0-0.4-0.1-0.4l0,0c0,0-0.1,0-0.1,0c-0.1,0-0.2,0.1-0.3,0.2c-0.1,0.1-0.2,0.2-0.4,0.3c-0.1,0-0.2,0.1-0.3,0.1
				c0,0-0.1,0-0.1,0c0,0,0,0-0.1,0c0,0-0.1,0-0.1,0c0,0,0,0-0.1,0c-0.2,0-0.4-0.1-0.6-0.2c-0.1-0.1-0.1-0.1-0.2-0.2
				c-0.1-0.1-0.2-0.3-0.2-0.4c0-0.1,0-0.2,0-0.3c0-0.1,0-0.2,0-0.3c0-0.1,0-0.2,0-0.3c0-0.2,0-0.3,0-0.5c0-0.1,0.1-0.3,0.1-0.4
				c0-0.1,0-0.1,0-0.2c0-0.1,0.1-0.2,0.1-0.4c0-0.1,0.1-0.1,0.1-0.2c0.1-0.2,0.1-0.4,0.2-0.5C68.9,7,69,7,69,6.9
				c0.1-0.2,0.2-0.4,0.3-0.5c0.1-0.1,0.1-0.2,0.2-0.3c0.1-0.1,0.2-0.2,0.3-0.3c0.2-0.2,0.5-0.4,0.7-0.7C70.6,5.1,70.6,5,70.7,5
				c0.1-0.1,0.2-0.1,0.3-0.1c0.3-0.1,0.5-0.3,0.8-0.4c0.1,0,0.1,0,0.2-0.1c0.1-0.1,0.2-0.1,0.4-0.2c0.1,0,0.1,0,0.2-0.1
				c0.1,0,0.2-0.1,0.3-0.1c0.1,0,0.1,0,0.2,0c0.1,0,0.2,0,0.3-0.1c0.1,0,0.1,0,0.2,0c0.2,0,0.3-0.1,0.5-0.1c0.1,0,0.2,0,0.3,0
				c0.1,0,0.1,0,0.2,0c0.3,0,0.1,0.3-0.1,0.4c0,0-0.1,0-0.1,0.1c0,0-0.1,0-0.1,0c-0.1,0-0.1,0-0.2,0.1c-0.2,0.1-0.3,0.3-0.1,0.4
				c0,0,0.1,0,0.1,0.1c0.1,0,0.2,0,0.3,0c0.1,0,0.3,0,0.4-0.1c0.1-0.1,0.2-0.3,0.4-0.3c0.1,0,0.2,0.2,0.3,0.2
				c0.2,0.1,0.4,0.1,0.6,0.1c0.1,0,0.1,0,0.2,0c0.2-0.1,0.3-0.3,0.1-0.5c-0.1-0.1-0.3-0.1-0.4-0.1c-0.1,0-0.1-0.1-0.2-0.2
				c0,0-0.1-0.1,0-0.2c0.1-0.1,0.4,0,0.5,0c0.2,0,0.4,0.1,0.7,0.1C77.2,3.9,77.4,4,77.6,4c0.1,0,0.2,0.1,0.3,0.1
				c0.1,0,0.2,0.1,0.2,0.1c0.1,0,0.1,0.1,0.2,0.1c0,0,0.1,0,0.1,0c0.1,0,0.1,0.1,0.2,0.1c0.1,0,0.2,0.1,0.2,0.1
				c0.1,0.1,0.2,0.1,0.3,0.2c0.2,0.1,0.4,0.2,0.5,0.3c0.1,0,0.1,0.1,0.2,0.1c0.1,0,0.1,0.1,0.1,0.1c0.1,0.1,0.1,0.1,0.1,0.2
				c0.1,0.1,0.3,0.2,0.4,0.4c0.1,0.1,0.2,0.3,0.4,0.4c0,0.1,0.1,0.1,0.1,0.2c0.1,0.1,0.1,0.2,0.2,0.3c0.1,0.1,0.1,0.2,0.2,0.4
				c0.1,0.3,0.3,0.6,0.4,1c0,0.1,0,0.2,0,0.2c0,0.1,0,0.1,0.1,0.2c0,0.1,0,0.1,0,0.2c0,0,0,0.1,0,0.2c0,0.3,0.1,0.6,0,0.9
				c0,0,0,0.1,0,0.1c0,0.1,0,0.2,0,0.3c-0.1,0.2-0.3,0.5-0.5,0.6c0,0-0.1,0.1-0.1,0.1c0,0-0.1,0-0.1,0c0,0,0,0,0,0c0,0,0,0-0.1,0
				c-0.5,0-0.9-0.2-1.2-0.5c-0.1-0.1-0.3-0.3-0.4-0.1c-0.1,0.1,0,0.3,0,0.4c0,0.2,0,0.3,0.1,0.5c0,0.1,0,0.1,0,0.2
				c0,0.3,0.1,0.6,0.2,0.8c0,0.1,0,0.1,0.1,0.2c0,0.1,0.2,0.5,0.3,0.5c0.2,0,0.3-0.4,0.4-0.5c0.1-0.1,0.3-0.3,0.5-0.3
				c0.1,0,0.1,0,0.2,0.1c0.1,0.1,0.3,0.5,0.2,0.6c-0.1,0.1-0.2-0.1-0.3-0.1c0,0-0.1,0-0.1,0v0c0,0,0,0,0,0c0,0,0.1,0.1,0.2,0.2
				c0,0.1,0.1,0.1,0.1,0.2c0.1,0.3,0.1,0.8-0.1,1c0,0.1-0.1,0.1-0.1,0.1v0c0,0,0-0.1,0-0.1c0-0.1,0-0.3,0-0.4c0-0.2-0.1-0.6-0.3-0.6
				c-0.1,0-0.1,0.1-0.1,0.1c0,0,0,0.1,0,0.1c0,0.1,0.1,0.3,0.1,0.4c0,0.1,0,0.2-0.1,0.4c0,0.1,0,0.1-0.1,0.2c0,0.1-0.1,0.2-0.1,0.3
				c0,0.1,0.1,0.2,0.2,0.2c0.1,0,0.2,0,0.2,0c0.1,0,0.1-0.1,0.2-0.1c0.1-0.1,0.3-0.3,0.4-0.5c0-0.1,0.1-0.2,0.1-0.3c0,0,0-0.1,0-0.1
				c0-0.1,0-0.3,0-0.4c0-0.1,0.2-0.1,0.2-0.1c0,0,0.1,0.1,0.1,0.1c0.1,0.1,0.2,0.3,0.2,0.5c0,0.3,0,0.5-0.1,0.8
				c-0.1,0.3-0.3,0.5-0.6,0.7c-0.1,0-0.1,0.1-0.2,0.1c0,0-0.1,0-0.1,0c-0.1,0-0.1,0-0.2,0c0,0-0.2,0-0.2,0c0,0,0,0,0,0
				c0,0,0,0-0.1,0c0,0,0,0-0.1,0c-0.1,0-0.3,0-0.4,0c-0.2-0.1-0.4-0.2-0.5-0.4c-0.1-0.1-0.1-0.6-0.2-0.7c-0.2,0-0.4,0.4-0.5,0.5
				c-0.1,0.2-0.3,0.4-0.4,0.6c0,0-0.1,0.1-0.1,0.1c-0.1,0.2-0.1,0.4-0.2,0.6c-0.1,0.1-0.1,0.2-0.2,0.2c0,0-0.1,0.1-0.1,0.1
				c0,0,0,0-0.1,0c0,0,0,0-0.1,0c-0.1,0-0.1,0-0.2,0c0,0-0.1,0-0.1,0c-0.1,0-0.2,0-0.2,0c-0.1-0.1,0.1-0.3-0.1-0.3h0
				c-0.1,0-0.1,0.1-0.2,0.1c-0.1,0.1-0.2,0.1-0.3,0.2c0,0-0.1,0.1-0.1,0.1c-0.1,0.1-0.2,0.2-0.3,0.3c-0.1,0.1-0.3,0.1-0.4,0.2h-0.1
				c0,0,0,0-0.1,0c0,0,0,0,0,0c0,0,0,0-0.1,0c0,0,0,0-0.1,0c0,0,0,0-0.1,0c0,0,0,0-0.1,0c0,0,0,0,0,0c0,0,0,0-0.1,0c0,0,0,0-0.1,0
				c0,0-0.1,0-0.1,0c-0.1,0-0.1,0-0.2,0c-0.2,0-0.4,0-0.6,0c-0.1,0-0.2-0.1-0.4-0.1c-0.2,0-0.3-0.1-0.5-0.2c-0.1,0-0.2-0.1-0.3-0.1
				c0,0-0.1-0.1-0.1-0.1c-0.1,0-0.1-0.1-0.2-0.1c-0.1-0.1-0.3-0.3-0.4-0.3c-0.1,0-0.1,0.1-0.1,0.2c0,0-0.1,0-0.1,0.1
				c-0.1,0-0.1,0-0.1,0c-0.1,0-0.2,0-0.3-0.1c-0.1,0-0.2-0.1-0.3-0.1c-0.3-0.2-0.3-0.6-0.4-0.9c-0.1-0.1-0.2-0.3-0.2-0.5
				c0-0.1-0.1-0.2-0.1-0.2c0-0.1-0.1-0.1-0.1-0.2c0-0.1-0.1-0.2-0.1-0.2c0,0-0.1-0.1-0.1-0.1c0,0-0.1,0-0.1,0
				c-0.2,0-0.2,0.5-0.3,0.7c0,0.2-0.2,0.4-0.4,0.5c-0.1,0-0.1,0.1-0.1,0.1c-0.6,0-1.3-0.1-1.6-0.6c0-0.1-0.1-0.1-0.1-0.2
				C68,14.7,68,14.4,68,14.2C68,13.9,68,13.6,68.2,13.4"/>
			<path class="st2" d="M76.8,19.7c0-0.1,0.1-0.2,0.1-0.2c0.2-0.3,0.3-0.6,0.5-0.9c0,0,0-0.1,0.1-0.1c0.1-0.1,0.1-0.2,0.2-0.3
				c0-0.1,0.1-0.2,0.1-0.3c0.1-0.1,0.2-0.3,0.3-0.4c0,0,0.1-0.1,0.1-0.1v0c0,0,0,0,0,0.1c0,0.1,0,0.1,0,0.2c0,0.1,0,0.1,0,0.2
				c0,0.1,0,0.1-0.1,0.1c0,0.1-0.1,0.1-0.1,0.2c0,0.1,0,0.1-0.1,0.2c0,0.1-0.1,0.2-0.1,0.3c0,0.1-0.1,0.2-0.1,0.3
				c0,0.1-0.1,0.2-0.1,0.3c-0.1,0.1-0.1,0.3-0.2,0.4c-0.1,0.1-0.1,0.3-0.1,0.4c0,0.1-0.2,0.3-0.3,0.4c-0.1,0-0.1,0-0.2,0
				c0,0-0.1,0-0.1-0.1C76.6,19.9,76.7,19.8,76.8,19.7"/>
			<path class="st2" d="M76.6,19.3c0,0.1-0.1,0.1-0.1,0.2c-0.1,0.1-0.1,0.3-0.2,0.4c-0.1,0.1-0.1,0.2-0.2,0.3c0,0-0.1,0.1-0.1,0.1
				c0,0,0,0-0.1,0c0,0-0.1,0-0.1,0c0,0-0.2,0-0.2,0c0,0-0.1,0-0.1,0c-0.1,0-0.4,0-0.4-0.1c0-0.1,0.2-0.3,0.3-0.4
				c0.1-0.1,0.2-0.2,0.3-0.3c0.1-0.1,0.2-0.3,0.3-0.4c0.1-0.1,0.2-0.2,0.3-0.3c0.2-0.2,0.3-0.4,0.5-0.7c0,0,0.1-0.1,0.1-0.1
				c0.2-0.1,0.3-0.3,0.5-0.5c0.1,0,0.1-0.1,0.2-0.1c0,0,0,0,0.1,0.1c0,0.1-0.1,0.3-0.2,0.4c0,0.1-0.1,0.2-0.2,0.3
				c-0.1,0.1-0.1,0.3-0.2,0.4c-0.1,0.2-0.2,0.3-0.3,0.5c0,0.1-0.1,0.1-0.1,0.2C76.7,19.2,76.7,19.2,76.6,19.3"/>
			<path class="st2" d="M75.4,17.9c0,0.1-0.1,0.2-0.2,0.2c0,0-0.1,0.1-0.1,0.1c0,0-0.1,0-0.1,0.1c-0.1,0-0.1,0-0.2,0
				c-0.1-0.1-0.2-0.2-0.3-0.4c0,0,0-0.1,0-0.1c0.1-0.1,0.2,0,0.3-0.1c0.1,0,0.2,0,0.3,0c0.1,0,0.1,0,0.2,0
				C75.4,17.8,75.4,17.8,75.4,17.9C75.4,17.8,75.4,17.9,75.4,17.9"/>
			<path class="st2" d="M65.4,15C65.4,15,65.4,15.1,65.4,15c0.1,0.1,0.2,0.1,0.3,0.2c0.1,0.1,0.2,0.1,0.3,0.2c0.1,0,0.1,0.1,0.2,0.1
				c0.2,0.2,0.5,0.3,0.7,0.5c0.1,0,0.1,0.1,0.2,0.1c0,0,0.1,0.1,0.2,0.1c0.1,0.1,0.2,0.2,0.4,0.3c0,0,0.1,0.1,0.1,0.1
				c0.1,0,0.1,0.1,0.2,0.1c0.1,0.1,0.2,0.2,0.3,0.3c0,0,0.1,0.1,0.1,0.1c0.1,0.1,0.1,0.1,0.2,0.2c0,0,0.1,0.1,0.1,0.1
				c0,0,0,0.1,0,0.1c0,0,0,0,0,0c0,0-0.1,0-0.1-0.1c-0.1-0.1-0.2-0.1-0.2-0.2c-0.1,0-0.1-0.1-0.2-0.1c-0.1-0.1-0.1-0.1-0.2-0.2
				c-0.2-0.1-0.4-0.3-0.5-0.4c-0.1,0-0.1-0.1-0.2-0.2c-0.1-0.1-0.2-0.2-0.3-0.2c-0.1,0-0.1-0.1-0.2-0.1c0,0-0.1-0.1-0.1-0.1
				c-0.1-0.1-0.2-0.2-0.3-0.2c-0.1-0.1-0.2-0.2-0.3-0.3c-0.1,0-0.1-0.1-0.2-0.1c0,0-0.1-0.1-0.1-0.1c-0.1-0.1-0.1-0.1-0.2-0.2
				c0,0-0.1-0.1-0.1-0.1c0,0,0,0,0-0.1C65.3,15,65.3,15,65.4,15"/>
			<path class="st2" d="M65.9,18.1C65.9,18.1,65.8,18.1,65.9,18.1c-0.2-0.1-0.2-0.1-0.2-0.2c-0.1-0.1-0.1-0.1-0.2-0.2
				c0,0,0-0.1-0.1-0.1c0,0,0-0.1-0.1-0.1c0,0,0-0.1-0.1-0.1c-0.1-0.2-0.2-0.4-0.3-0.6c0,0,0-0.1,0-0.1c0-0.1-0.1-0.2-0.1-0.3
				c0,0,0-0.1,0-0.1c0,0,0-0.1-0.1-0.1c-0.1-0.2-0.1-0.4-0.2-0.6c0-0.1-0.3-0.5-0.2-0.7c0.1,0,0.2,0.1,0.3,0.2
				c0.1,0,0.1,0.1,0.2,0.1c0.2,0.1,0.3,0.2,0.5,0.4c0,0,0.1,0.1,0.1,0.1c0.1,0.1,0.2,0.1,0.3,0.2c0.1,0.1,0.2,0.2,0.3,0.2
				c0,0,0.1,0.1,0.1,0.1c0.1,0,0.1,0.1,0.2,0.2c0.1,0.1,0.2,0.1,0.2,0.2c0,0.1-0.1,0.2-0.1,0.3c-0.1,0.1-0.1,0.3-0.2,0.4
				c0,0.2-0.1,0.3-0.1,0.5C66,17.8,66,18,65.9,18.1"/>
			<path class="st2" d="M67,24c-0.2,0-0.4,0-0.6,0c-0.1,0-0.3,0-0.4,0c-0.1,0-0.1,0-0.2,0c-0.1,0-0.2,0-0.3,0c-0.1,0-0.2,0-0.3,0
				h-0.2c-0.1,0-0.2,0-0.3,0c-0.1,0-0.2,0-0.2,0c-0.1,0-0.1,0-0.2,0c-0.4,0-0.9,0-1.1-0.4c-0.2-0.4,0.1-0.8,0.3-1.1
				c0.5-0.6,1-1.1,1.6-1.7c0.1-0.2,0.3-0.3,0.4-0.5c0.1-0.1,0.1-0.2,0.2-0.2c0,0,0.1-0.1,0.1-0.1c0.1,0,0.1,0,0.1,0.1
				c0,0.1,0,0.2,0,0.3c0,0,0,0.1,0,0.1c0,0.1,0,0.2,0,0.3c0,0,0,0.1,0,0.1c0,0,0,0.1,0,0.1c0,0.1,0,0.2,0.1,0.3c0,0.4,0.1,0.7,0.2,1
				c0,0.1,0,0.2,0.1,0.3c0,0.1,0.1,0.1,0.1,0.2c0,0,0,0.1,0,0.1c0,0.1,0.1,0.2,0.1,0.3c0,0.1,0,0.1,0.1,0.2c0.1,0.1,0.1,0.3,0.2,0.4
				c0,0.1,0.1,0.1,0.1,0.2C67.1,23.9,67.1,24,67,24"/>
			<path class="st2" d="M74.2,25.5c0,0-0.1,0.1-0.1,0.1c-0.1,0-0.2,0-0.4-0.1c-0.1,0-0.1-0.1-0.2-0.1c-0.2,0-0.3,0.2-0.4,0.2
				c-0.1,0-0.2,0-0.2,0.1c0,0,0,0,0,0c0,0,0,0,0,0c0,0,0,0,0,0c0,0,0,0-0.1,0c0,0,0,0-0.1,0c0,0-0.1,0-0.2,0c0,0-0.1,0-0.1,0
				c0,0,0,0-0.1,0c0,0-0.1,0-0.1,0c-0.1,0-0.2,0-0.3,0c0,0-0.1,0-0.1,0c-0.1,0-0.3,0-0.4,0c-0.1-0.1-0.3-0.2-0.4-0.2
				c-0.1-0.1-0.2-0.2-0.4-0.2c-0.1,0-0.1-0.1-0.2-0.2c-0.1-0.2,0.2-0.3,0.1-0.5c-0.1-0.1-0.2-0.1-0.2-0.1c-0.1,0-0.2-0.1-0.3-0.1
				c-0.1,0-0.2-0.1-0.2-0.1c-0.1-0.1-0.2-0.1-0.3-0.2c-0.1-0.1-0.3-0.3-0.4-0.3c-0.1,0-0.2,0.1-0.3,0.2c0,0-0.1,0-0.1,0.1
				c-0.1,0-0.3,0-0.4,0c0,0-0.1-0.1-0.1-0.1c-0.1-0.1-0.2-0.2-0.3-0.3c0,0,0-0.1-0.1-0.1c-0.1-0.2-0.3-0.3-0.4-0.5
				c-0.1-0.1-0.2-0.3-0.2-0.4c0-0.1-0.1-0.2-0.1-0.2c0-0.1-0.1-0.1-0.1-0.2c0-0.1,0-0.2-0.1-0.2c-0.1-0.2-0.1-0.4-0.2-0.6
				c0-0.3-0.1-0.5-0.1-0.8c0-0.1,0-0.2,0-0.3c0-0.1,0-0.2,0-0.3c0-0.1,0-0.1,0-0.2c0-0.1,0-0.2,0-0.2c0-0.2-0.1-0.5-0.1-0.7
				c0-0.2,0-0.4,0-0.6c0-0.1,0-0.2,0-0.3c0-0.2,0.1-0.4,0.2-0.7c0,0,0-0.1,0-0.1c0.1-0.1,0.1-0.3,0.2-0.4c0,0,0,0,0.1,0
				c0.2,0,0.2,0.1,0.3,0.2c0.1,0,0.1,0.1,0.2,0.1c0.1,0.1,0.3,0.2,0.4,0.3c0.1,0.1,0.3,0.2,0.4,0.3c0.1,0,0.1,0.1,0.2,0.1
				c0.1,0,0.2,0.1,0.3,0.1c0.1,0,0.1,0,0.2,0c0.1,0,0.1,0,0.2,0c0.1,0,0.1,0.1,0.1,0.2c0,0.1,0.1,0.1,0.2,0.2
				c0.1,0.1,0.1,0.3,0.2,0.4c0.1,0.1,0.2,0.2,0.2,0.3c0,0,0,0,0,0c0,0,0,0,0,0c0,0-0.1-0.1-0.1-0.1c0,0-0.1-0.1-0.1-0.1
				c-0.1-0.1-0.1-0.2-0.2-0.2c-0.1-0.1-0.2-0.3-0.3-0.3c0,0-0.1,0-0.1,0c-0.1,0.1,0,0.3,0.1,0.4c0,0.1,0.1,0.1,0.1,0.2
				c0.1,0.1,0.2,0.3,0.3,0.4c0.1,0.1,0.3,0.2,0.4,0.4c0.1,0,0.1,0.1,0.2,0.1c0.1,0.1,0.2,0.1,0.3,0.3c0,0.1,0.1,0.2,0.1,0.2
				c0,0,0.1,0.1,0.1,0.1c0.1,0.1,0.1,0.2,0.1,0.4c0,0.1,0.1,0.2,0.1,0.2c0.1,0.3,0.2,0.5,0.3,0.7c0,0.1,0.1,0.2,0.1,0.3
				c0,0.1,0.1,0.1,0.1,0.2c0,0.1,0.1,0.2,0.1,0.3c0.1,0.1,0.1,0.3,0.2,0.4c0,0.1,0.1,0.2,0.1,0.3c0.1,0.2,0.1,0.3,0.2,0.4
				c0,0.1,0.1,0.1,0.1,0.2c0,0.1,0.1,0.1,0.1,0.2c0.1,0.1,0.4,0.2,0.6,0.2c0.2,0,0.3,0.1,0.4,0.1c0,0,0.1,0,0.1,0
				c0.3,0.1,0.7,0.2,1,0.4C74.2,25,74.4,25.3,74.2,25.5"/>
			<path class="st2" d="M74.3,20.1c0,0.1-0.1,0.1-0.1,0.1H74c-0.1,0-0.3,0-0.4,0c-0.2,0-0.3,0-0.4-0.1c-0.1-0.1-0.2-0.3-0.2-0.4
				c0,0,0-0.1-0.1-0.1c-0.1-0.2-0.2-0.5-0.2-0.7c0,0,0-0.1-0.1-0.1c0-0.1-0.1-0.1-0.1-0.2c0-0.1,0-0.1,0-0.2c0-0.1-0.1-0.2-0.1-0.3
				c0-0.1,0-0.1-0.1-0.2c-0.1-0.2-0.2-0.4-0.3-0.7c0-0.1-0.1-0.1-0.1-0.2c0,0,0-0.1,0-0.1c0.1,0,0.2,0.2,0.3,0.3
				c0.1,0.1,0.2,0.2,0.3,0.4c0,0.1,0.1,0.1,0.1,0.2c0.1,0.1,0.2,0.3,0.3,0.5c0,0.1,0.1,0.1,0.1,0.2c0,0.1,0.1,0.1,0.1,0.2
				c0.1,0.1,0.1,0.2,0.2,0.2c0.1,0.2,0.3,0.4,0.4,0.6c0.1,0.1,0.2,0.3,0.3,0.4C74.2,19.9,74.2,20,74.3,20.1
				C74.3,20,74.3,20.1,74.3,20.1"/>
			<path class="st2" d="M74.2,19c0,0-0.1,0-0.1,0c-0.1,0-0.1,0-0.2,0c-0.1,0-0.1-0.1-0.2-0.2c0,0-0.1-0.1-0.1-0.1
				c0-0.1-0.1-0.1-0.1-0.2c-0.1-0.1-0.2-0.3-0.3-0.4c-0.1-0.1-0.2-0.3-0.3-0.4c-0.1-0.1-0.3-0.3-0.2-0.4c0,0,0.1-0.1,0.1-0.1
				c0.1,0,0.1,0,0.2,0c0.1,0,0.1,0,0.1,0.1c0.1,0.1,0.2,0.1,0.3,0.2c0.1,0,0.1,0.1,0.2,0.1c0.1,0.1,0.2,0.2,0.3,0.3
				c0.1,0.1,0.1,0.2,0.2,0.2c0,0,0.1,0.1,0.1,0.1c0.1,0.1,0.2,0.2,0.2,0.4C74.5,18.8,74.3,19,74.2,19"/>
			<path class="st2" d="M74.7,19.9c-0.1,0-0.1,0-0.1-0.1c-0.1-0.1-0.1-0.1-0.1-0.2c0-0.1-0.1-0.2,0-0.4c0-0.1,0.1-0.1,0.1-0.2
				c0.1-0.1,0.2-0.2,0.2-0.3c0.4-0.4,0.7-0.8,1.2-1.1c0.1-0.1,0.1-0.1,0.2-0.2c0.1,0,0.2,0,0.2-0.1c0.1,0,0.2-0.1,0.3-0.1
				c0,0,0.1,0,0.1,0c0,0,0,0.1,0,0.1c0,0.1-0.1,0.1-0.1,0.2c-0.1,0.1-0.2,0.2-0.3,0.3c-0.3,0.4-0.7,0.8-1,1.2
				c-0.1,0.1-0.2,0.2-0.2,0.3c-0.1,0.1-0.1,0.2-0.2,0.2C74.9,19.8,74.8,19.9,74.7,19.9"/>
			<path class="st2" d="M82.6,24C82.6,24,82.6,24,82.6,24c-0.3,0-0.4,0-0.6,0c-0.1,0-0.3,0-0.4-0.1c-0.1-0.1-0.2-0.2-0.3-0.2
				c0,0,0,0,0,0c-0.1,0-0.2,0.1-0.3,0.1C81,23.9,80.9,24,80.8,24c-0.1,0-0.2,0.1-0.2,0.1c0,0-0.1,0-0.1,0c0,0-0.1,0-0.1,0
				c0,0-0.1,0-0.1,0c0,0,0,0-0.1,0c0,0,0,0,0,0c0,0,0,0-0.1,0c0,0-0.1,0-0.1,0c0,0-0.1,0-0.1,0c0,0-0.2,0-0.2,0c-0.1,0-0.2,0-0.3,0
				c-0.1,0-0.2,0-0.3,0c-0.1,0-0.2,0-0.3,0c-0.1,0-0.3,0-0.4,0c-0.1,0-0.2-0.1-0.3-0.1v0h0c0,0.1,0.1,0.1,0.2,0.2
				c0,0.1,0.1,0.1,0.1,0.2c0,0.1,0.1,0.1,0.1,0.2c0,0.1-0.1,0.2-0.1,0.3c0,0.1-0.1,0.1-0.2,0.1c-0.1,0-0.1,0.1-0.2,0.1
				c-0.1,0.1-0.3,0.2-0.4,0.2c0,0-0.1,0-0.1,0c-0.1,0-0.2,0-0.3,0c0,0-0.1,0-0.1,0c-0.1,0-0.2,0-0.3,0c-0.1,0-0.2,0-0.3,0
				c-0.1,0-0.2,0-0.3-0.1c-0.1-0.1,0.1-0.2,0-0.3c0,0-0.1,0-0.1,0c-0.1,0-0.2,0.1-0.2,0.1c0,0,0,0-0.1,0c0,0,0,0-0.1,0
				c0,0-0.1,0-0.2,0c-0.1,0-0.2,0-0.3,0c0,0-0.1,0-0.1,0c-0.1,0-0.2,0-0.3,0c-0.1,0-0.3,0-0.2-0.1c0-0.1,0.4-0.3,0.5-0.4
				c0.1-0.1,0.2-0.1,0.3-0.2c0.1-0.1,0.2-0.1,0.3-0.2c0.1,0,0.1-0.1,0.2-0.1c0,0,0.1-0.1,0.1-0.1c0.1-0.1,0.3-0.1,0.4-0.2
				c0.1,0,0.1,0,0.2-0.1c0.1-0.1,0.2-0.2,0.4-0.3c0.1-0.2,0.3-0.4,0.4-0.6c0.1-0.1,0.1-0.2,0.2-0.2c0.3-0.4,0.6-0.8,0.9-1.1
				c0.1-0.1,0.1-0.1,0.2-0.2c0.2-0.2,0.4-0.5,0.6-0.7c0,0,0-0.1,0.1-0.1c0,0,0.1-0.1,0.1-0.1c0.1-0.1,0.1-0.2,0.2-0.3
				c0.2-0.1,0.3-0.3,0.5-0.4c0.2-0.2,0.4-0.5,0.6-0.7c0.1-0.1,0.4-0.5,0.3-0.6c0-0.1-0.1,0-0.2,0c0,0-0.1,0.1-0.1,0.1
				c0,0.1-0.1,0.2-0.2,0.2c-0.1,0.1-0.1,0.2-0.2,0.2c-0.1,0.1-0.2,0.2-0.3,0.3c0,0-0.1,0.1-0.1,0c-0.1-0.1,0.2-0.6,0.3-0.7
				c0,0,0.1-0.1,0.1-0.1c0.1-0.1,0.1-0.1,0.2-0.2c0.1-0.1,0.2-0.3,0.3-0.3c0.1,0,0.1,0,0.2,0c0.1,0,0.2,0,0.3-0.1
				c0.4-0.2,0.7-0.4,1.1-0.6c0.2-0.1,0.3-0.3,0.5-0.3c0,0,0.1,0,0.1,0c0,0,0.1,0,0.1,0.1c0.1,0.1,0.1,0.2,0.1,0.2
				c0,0.1,0.1,0.2,0.1,0.3c0,0.1,0,0.1,0.1,0.2c0,0.2,0.1,0.3,0.1,0.5c0,0.2,0,0.4,0,0.7c0,0.2,0,0.3,0,0.5c0,0.1-0.1,0.3-0.1,0.4
				c0,0.3-0.1,0.5-0.2,0.8c0,0.2,0,0.3-0.1,0.5c0,0.1,0,0.1,0,0.2c-0.1,0.3-0.1,0.6-0.2,1c0,0.1,0,0.2-0.1,0.3
				c0,0.1-0.1,0.2-0.1,0.4c0,0,0,0.1,0,0.2c0,0.1,0,0.1,0,0.1C83,23.4,82.9,23.8,82.6,24"/>
			<path class="st2" d="M87,23.2c0,0.2-0.2,0.3-0.4,0.4c0,0-0.1,0-0.1,0.1c0,0-0.1,0-0.1,0c0,0,0,0-0.1,0c0,0,0,0-0.1,0
				c0,0-0.1,0-0.1,0c0,0,0,0-0.1,0c0,0,0,0-0.1,0c0,0,0,0-0.1,0c0,0-0.1,0-0.1,0c0,0-0.1,0-0.1,0c0,0-0.1,0-0.1,0c0,0,0,0-0.1,0
				c0,0-0.1,0-0.1,0c0,0-0.1,0-0.1,0c0,0-0.1,0-0.1,0c0,0-0.1,0-0.1,0c0,0,0,0-0.1,0c0,0-0.1,0-0.1,0c0,0-0.1,0-0.1,0
				c0,0-0.1,0-0.1,0c-0.1,0-0.2,0-0.2,0c0,0-0.1,0-0.1,0c0,0-0.1,0-0.1,0c-0.1,0-0.2,0-0.2,0c0,0-0.1,0-0.1,0c0,0-0.1,0-0.1,0
				c0,0-0.1,0-0.1,0c0,0-0.1,0-0.1,0c-0.1,0-0.2,0-0.2,0c0,0,0,0-0.1,0c-0.1,0-0.4,0-0.4-0.1c0-0.1,0.1-0.2,0.2-0.3
				c0.1-0.1,0.1-0.3,0.2-0.4c0-0.1,0.1-0.2,0.1-0.3c0-0.1,0.1-0.2,0.1-0.3c0,0,0-0.1,0-0.1c0-0.2,0.1-0.4,0.1-0.6c0-0.1,0-0.1,0-0.2
				c0-0.1,0-0.2,0.1-0.2c0-0.2,0.1-0.4,0.1-0.5c0-0.1,0-0.1,0-0.2c0-0.2,0.1-0.4,0.1-0.5c0-0.1,0-0.2,0.1-0.3c0,0,0.1,0,0.1,0
				c0.1,0.1,0.2,0.2,0.3,0.3c0.2,0.2,0.3,0.4,0.5,0.5c0,0,0.1,0.1,0.1,0.1c0.1,0.1,0.2,0.2,0.3,0.3c0.1,0.1,0.1,0.1,0.2,0.2
				c0,0,0.1,0.1,0.1,0.1c0.1,0.2,0.3,0.3,0.5,0.5c0.1,0.1,0.1,0.1,0.2,0.2c0,0,0.1,0.1,0.1,0.1c0,0,0,0.1,0.1,0.1
				c0.1,0.1,0.2,0.2,0.2,0.3C87,22.8,87,23.1,87,23.2"/>
			<path class="st1" d="M72.2,11.6c0.1,0,0.1,0,0.2,0c0.1,0,0.2,0,0.3,0c0.1,0,0.3,0.1,0.4,0.1c0.1,0,0.2,0.1,0.3,0.1
				c0.1,0,0.3,0.3,0.4,0.3c0,0,0,0,0,0c0.1-0.1-0.1-0.3-0.1-0.4c-0.1-0.3-0.4-0.6-0.7-0.7c-0.1-0.1-0.3-0.1-0.4-0.1
				c-0.1,0-0.1,0-0.2,0c-0.1,0-0.2,0.1-0.3,0.1c-0.2,0.1-0.3,0.3-0.5,0.4c0,0-0.1,0.1,0,0.2C71.8,11.8,72.1,11.7,72.2,11.6"/>
			<path class="st1" d="M76.3,11.8c0.1,0,0.2-0.1,0.3-0.1c0.1,0,0.1,0,0.2,0c0.1,0,0.2,0,0.2,0c0.3,0,0.5,0.1,0.7,0.2
				c0.1,0.1,0.2,0.2,0.3,0.2c0,0,0.1,0,0.1,0c0.1-0.1,0-0.2,0-0.2c-0.1-0.3-0.3-0.6-0.6-0.7C77.4,11,77.2,11,77,11
				c-0.1,0-0.2,0-0.3,0.1c-0.1,0-0.1,0.1-0.2,0.1c-0.1,0.1-0.4,0.4-0.3,0.5C76.2,11.8,76.2,11.8,76.3,11.8"/>
			<path class="st1" d="M73.1,12.9c-0.1,0-0.2-0.1-0.3-0.1c-0.1,0-0.2,0-0.3,0.1c-0.1,0-0.2,0.1-0.2,0.1c-0.1,0.1-0.4,0.4-0.3,0.5
				c0.1,0.1,0.2,0,0.2,0.1c0,0,0.1,0.1,0.1,0.1c0,0,0.1,0,0.1,0c0,0,0,0,0.1,0c0.1,0,0.1,0,0.2,0c0.1,0,0.1,0,0.1-0.1
				c0.1,0,0.1,0,0.2-0.1c0,0,0.1-0.1,0.1-0.1c0,0,0-0.1,0.1-0.1c0,0,0.1,0,0.1,0c0.1,0,0.2,0.1,0.2,0C73.7,13.2,73.2,12.9,73.1,12.9
				"/>
			<path class="st1" d="M77.7,13c-0.1-0.1-0.1-0.1-0.2-0.1c-0.1,0-0.2-0.1-0.3-0.1c0,0-0.1,0-0.1,0c-0.1,0-0.2,0-0.2,0.1
				c-0.1,0.1-0.2,0.1-0.3,0.2c-0.1,0-0.2,0.2-0.2,0.3c0,0.1,0.1,0,0.2,0c0,0,0.1,0,0.1,0c0,0,0.1,0,0.1,0.1c0.1,0.1,0.3,0.2,0.4,0.3
				c0,0,0.1,0,0.2,0c0.1,0,0.1,0,0.2,0c0.1,0,0.1-0.1,0.2-0.1c0.1,0,0.2,0,0.3-0.1c0,0,0,0,0.1,0C78.2,13.4,77.8,13.1,77.7,13"/>
			<path class="st1" d="M74.6,15.2c0.2,0,0.4,0,0.6,0c0.1,0,0.1,0,0.2,0c0,0,0.1,0,0.1,0c0.1,0,0.2,0,0.3,0c0.1,0,0.1,0,0.2,0
				c0,0,0.1-0.1,0.1-0.1c0.1-0.1,0.2-0.2,0.2-0.3c0-0.1-0.1-0.4-0.1-0.4c0,0,0,0-0.1-0.1c0-0.1,0-0.2-0.1-0.3c0,0-0.1-0.1-0.1-0.1v0
				c0,0-0.1,0-0.1,0.1c0,0,0,0.1,0,0.1c0,0.1,0.1,0.2,0.1,0.3c0,0.1,0.1,0.2,0.1,0.2c0,0.1-0.1,0.2-0.2,0.2c-0.1,0-0.2,0-0.3,0
				c0,0-0.1,0-0.1,0c-0.1,0-0.2,0-0.3,0c-0.2,0-0.6,0-0.7-0.1c0,0,0-0.1,0-0.1c0,0,0,0,0,0c0-0.2,0.3-0.5,0.1-0.7c0,0-0.1,0-0.1,0
				c0,0-0.1,0-0.1,0c0,0.1-0.1,0.2-0.1,0.2c-0.1,0.1-0.1,0.2-0.2,0.4c0,0.1,0,0.2,0,0.3C74,15.1,74.4,15.2,74.6,15.2"/>
			<path class="st1" d="M75.6,15.6c0,0-0.1,0-0.1,0c-0.1,0-0.2,0-0.2,0.1c0,0-0.1,0-0.1,0c-0.1,0-0.3,0-0.4,0c-0.1,0-0.1,0-0.2-0.1
				c0,0-0.1,0-0.1,0c0,0-0.1,0-0.1-0.1c-0.1,0-0.2-0.1-0.3-0.1c0,0,0,0.1,0,0.1c0,0.1,0.3,0.3,0.4,0.3c0.2,0.1,0.5,0.2,0.7,0.2
				c0.1,0,0.2-0.1,0.3-0.1c0.1,0,0.2-0.1,0.3-0.2c0.1-0.1,0.2-0.1,0.2-0.2c0,0,0,0-0.1,0C75.9,15.5,75.7,15.6,75.6,15.6"/>
			<path class="st2" d="M75,16.4c0,0-0.2,0-0.2,0.1c0,0.1,0.2,0.1,0.3,0.1c0.1,0,0.1,0,0.1-0.1C75.3,16.4,75.1,16.4,75,16.4"/>
		</g>
	</g>
	<g>
		<path d="M17.3,41.6c0.3-0.3,0.5-0.8,0.5-1.3c0-0.8-0.4-1.4-1.2-1.8c-0.8-0.4-1.8-0.7-3.1-0.7c-1.4,0-2.7,0.2-3.9,0.5
			c-1.2,0.4-2.3,0.9-3.2,1.5c-1,0.7-1.6,1.5-2,2.3c-0.4,0.8-0.6,2-0.6,3.5v6H0.2v1h3.6v12.7c0,1.5,0,2.6-0.1,3.3
			c-0.1,0.8-0.2,1.3-0.4,1.7c-0.3,0.6-0.6,1-1,1.2c-0.4,0.2-1.1,0.4-2.1,0.6l0,0v0.6h11v-0.6l0,0c-1.2-0.2-2.1-0.6-2.5-1
			c-0.4-0.3-0.6-0.8-0.8-1.3c-0.1-0.5-0.2-1.3-0.2-2.4l0-1.9V52.7h4.9v-1H7.7v-6.5c0-1.4,0.1-2.5,0.2-3.2c0.1-0.7,0.4-1.3,0.7-1.8
			c0.3-0.4,0.7-0.7,1.3-1c0.6-0.3,1.1-0.4,1.8-0.4c0.5,0,0.9,0.1,1.2,0.3c0.3,0.2,0.7,0.7,1.1,1.5c0.3,0.6,0.7,0.9,1,1.2
			c0.3,0.2,0.7,0.4,1.2,0.4C16.6,42.1,17,42,17.3,41.6"/>
		<path d="M38.6,71.3c-0.4-0.2-0.7-0.5-1-1c-0.3-0.4-0.4-1-0.5-1.7c-0.1-0.7-0.1-1.8-0.1-3.6V51.7h-7.3v0.6l0,0
			c1.2,0.2,2.1,0.5,2.6,1c0.4,0.4,0.6,0.8,0.7,1.3c0.1,0.5,0.2,1.3,0.2,2.4l0,1.8v4.8c0,1.9-0.1,3.3-0.2,4.1
			c-0.2,0.8-0.5,1.6-0.9,2.2c-0.5,0.6-1.1,1.1-1.9,1.5c-0.8,0.4-1.7,0.5-2.6,0.5c-0.8,0-1.6-0.2-2.3-0.5c-0.7-0.3-1.2-0.8-1.5-1.3
			c-0.3-0.5-0.6-1.2-0.7-2.1c-0.1-0.8-0.2-2.1-0.2-3.9V51.7h-7.3v0.6l0,0c1.2,0.2,2.1,0.5,2.5,1c0.4,0.4,0.6,0.8,0.7,1.3
			c0.1,0.5,0.2,1.3,0.2,2.4l0,1.9v8.6c0,1.8,0.6,3.2,1.8,4.2c1.3,1,2.9,1.5,5,1.5c2.8,0,5.2-1,7.3-3c0,1,0.1,2,0.3,3l0,0l6.8-0.9
			l0,0v-0.6l0,0C39.5,71.7,39,71.5,38.6,71.3"/>
		<path d="M64.1,71.6c-0.5-0.3-1-0.6-1.4-0.9c-0.4-0.3-1-0.9-1.9-1.8c0,0-1.5-1.7-2-2.2l-5.7-7.1l2.7-2.9l1-1.1
			c1.2-1.3,2.2-2.1,2.9-2.5c0.7-0.4,1.7-0.6,2.9-0.6h0v-0.6H53v0.6l0,0c0.9,0.1,1.4,0.1,1.8,0.3c0.7,0.3,1.1,0.8,1.1,1.4
			c0,0.5-0.2,1-0.5,1.5c-0.3,0.5-0.9,1.3-1.8,2.3l-4.4,4.8V38l-7.2,0.9l0,0v0.6l0,0c0.7,0,1.3,0.2,1.7,0.4c0.4,0.2,0.7,0.5,1,1
			c0.3,0.4,0.5,1,0.5,1.7c0.1,0.7,0.1,1.8,0.1,3.5v19.4c0,1.5,0,2.6-0.1,3.3c-0.1,0.8-0.2,1.3-0.4,1.7c-0.3,0.6-0.6,1-1,1.2
			c-0.4,0.2-1.1,0.4-2.1,0.6l0,0v0.6h11v-0.6l0,0c-1.2-0.2-2.1-0.6-2.5-1c-0.4-0.3-0.6-0.8-0.8-1.3c-0.1-0.5-0.2-1.3-0.2-2.4l0-1.9
			v-1.8l1.5-1.6l5.3,6.6l0.5,0.6c0.5,0.5,0.7,1,0.7,1.5c0,0.4-0.2,0.8-0.6,1c-0.3,0.2-0.8,0.3-1.5,0.3l0,0v0.6h11.3v-0.6l0,0
			C65.3,72.1,64.7,71.9,64.1,71.6"/>
		<path d="M88.3,71.3c-0.4-0.2-0.7-0.5-1-1c-0.3-0.4-0.4-1-0.5-1.7c-0.1-0.7-0.1-1.8-0.1-3.6V51.7h-7.3v0.6l0,0
			c1.2,0.2,2.1,0.5,2.5,1c0.4,0.4,0.6,0.8,0.7,1.3c0.1,0.5,0.2,1.3,0.2,2.4l0,1.8v4.8c0,1.9-0.1,3.3-0.2,4.1
			c-0.2,0.8-0.5,1.6-0.9,2.2c-0.5,0.6-1.1,1.1-1.9,1.5C79,71.8,78.1,72,77.2,72c-0.8,0-1.6-0.2-2.3-0.5c-0.7-0.3-1.2-0.8-1.5-1.3
			c-0.3-0.5-0.6-1.2-0.7-2.1c-0.1-0.8-0.2-2.2-0.2-3.9V51.7h-7.3v0.6l0,0c1.2,0.2,2.1,0.5,2.5,1c0.4,0.4,0.6,0.8,0.7,1.3
			c0.1,0.5,0.2,1.3,0.2,2.4l0,1.9v8.6c0,1.8,0.6,3.2,1.8,4.2c1.3,1,2.9,1.5,5,1.5c2.8,0,5.2-1,7.3-3c0,1,0.1,2,0.3,3l0,0l6.8-0.9
			l0,0v-0.6l0,0C89.3,71.7,88.7,71.5,88.3,71.3"/>
		<path d="M101.7,60.5l-2.6-1.2c-1.2-0.5-2.1-1.1-2.7-1.8c-0.6-0.6-0.9-1.4-0.9-2.2c0-1,0.3-1.8,1-2.4c0.6-0.7,1.4-1,2.3-1
			c0.6,0,1.3,0.2,2,0.5c0.7,0.3,1.3,0.8,1.8,1.5c0.4,0.4,0.7,0.9,0.9,1.4c0.2,0.5,0.4,1.1,0.6,1.9l0,0h0.6l-0.3-5.6l0,0h-0.6l0,0
			c-0.3,0.5-0.6,0.7-0.9,0.7c-0.2,0-0.4,0-0.7-0.1l-0.8-0.4c-0.7-0.3-1.5-0.4-2.4-0.4c-1.9,0-3.4,0.6-4.5,1.8
			c-1,1.1-1.5,2.4-1.5,3.9c0,1.4,0.5,2.6,1.5,3.7c0.7,0.7,2.1,1.7,4.2,2.8c1.2,0.6,2,1.1,2.5,1.5c0.5,0.3,0.9,0.7,1.2,1.1
			c0.6,0.8,0.9,1.7,0.9,2.7c0,1.3-0.4,2.2-1.2,2.9c-0.7,0.6-1.6,0.9-2.7,0.9c-1.7,0-3.2-0.9-4.4-2.8c-0.7-1-1.3-2.4-1.7-4.1l0,0
			h-0.5v7.1h0.5l0,0c0.3-0.5,0.7-0.7,1.3-0.7c0.2,0,0.4,0,0.6,0.1c0.1,0,0.6,0.2,1.3,0.5c1.1,0.4,2.2,0.6,3.3,0.6c2,0,3.7-0.7,5-2
			c1.1-1.1,1.7-2.6,1.7-4.3c0-1.4-0.4-2.7-1.2-3.8C104.4,62.1,103.2,61.2,101.7,60.5"/>
		<path d="M130.4,71.6c-0.5-0.3-1-0.6-1.4-0.9c-0.4-0.3-1-0.9-1.9-1.8c0,0-1.6-1.7-2.1-2.2l-5.6-7.1l2.7-2.9l1-1.1
			c1.2-1.3,2.2-2.1,2.9-2.5c0.7-0.4,1.7-0.6,2.9-0.6h0v-0.6h-9.6v0.6l0,0c0.9,0.1,1.4,0.1,1.8,0.3c0.7,0.3,1.1,0.8,1.1,1.4
			c0,0.5-0.2,1-0.5,1.5c-0.3,0.5-0.9,1.3-1.8,2.3l-4.4,4.8V38l-7.2,0.9l0,0v0.6l0,0c0.7,0,1.3,0.2,1.7,0.4c0.4,0.2,0.7,0.5,1,1
			c0.3,0.4,0.5,1,0.5,1.7c0.1,0.7,0.1,1.8,0.1,3.5v19.4c0,1.4,0,2.6-0.1,3.3c-0.1,0.7-0.2,1.3-0.4,1.7c-0.3,0.6-0.6,1-1,1.2
			c-0.4,0.2-1.1,0.4-2.1,0.6l0,0v0.6h11v-0.6l0,0c-1.2-0.2-2.1-0.6-2.5-1c-0.4-0.3-0.6-0.8-0.8-1.3c-0.1-0.5-0.2-1.3-0.2-2.4l0-1.9
			v-1.8l1.5-1.6l5.3,6.6l0.5,0.6c0.5,0.5,0.7,1,0.7,1.5c0,0.4-0.2,0.8-0.6,1c-0.3,0.2-0.8,0.3-1.5,0.3l0,0v0.6h11.3v-0.6l0,0
			C131.5,72.1,130.9,71.9,130.4,71.6"/>
		<path d="M149.4,67.1L149.4,67.1c-0.4,1.3-0.9,2.2-1.5,2.8c-0.5,0.5-1.2,0.9-2,1.2c-0.8,0.3-1.6,0.4-2.5,0.4
			c-1.2,0-2.3-0.3-3.4-0.8c-1.1-0.5-2-1.3-2.7-2.2c-0.7-0.9-1.3-2-1.7-3.4c-0.4-1.4-0.6-2.8-0.6-4.2c0-0.3,0-0.9,0.1-1.7h14.5v0
			c0-2.1-0.6-3.8-1.8-5.2c-0.8-0.9-1.7-1.6-2.9-2c-1.1-0.5-2.4-0.7-3.7-0.7c-2.5,0-4.7,0.8-6.6,2.3c-2.6,2.1-4,5.1-4,8.8
			c0,2.7,0.7,5,2.1,6.9c1,1.3,2.3,2.3,3.7,3c1.4,0.6,3.2,1,5.2,1c2.3,0,4.2-0.5,5.6-1.5c1.4-1,2.3-2.5,2.8-4.4l0,0L149.4,67.1z
			 M140.7,51.9c0.8,0,1.6,0.2,2.3,0.7c0.7,0.5,1.3,1.1,1.8,1.9c0.5,0.9,0.8,2.1,0.9,3.7h-10.5c0.2-1.8,0.8-3.3,1.9-4.5
			C138.1,52.5,139.3,51.9,140.7,51.9"/>
	</g>
	<g>
		<polygon class="st3" points="10.1,99.8 10.1,92.9 10,92.9 6.7,98.5 6,98.5 2.6,92.9 2.5,92.9 2.5,99.8 0,99.8 0,87.9 2.5,87.9 
			6.4,94.5 6.4,94.5 10.3,87.9 12.8,87.9 12.8,99.8 		"/>
		<polygon class="st3" points="23.6,94.7 19.2,94.7 19.2,97.6 26.9,97.6 26.9,99.8 16.5,99.8 16.5,87.9 26.5,87.9 26.5,90.2 
			19.2,90.2 19.2,92.5 23.6,92.5 		"/>
		<path class="st3" d="M29.7,99.8V87.9h5.6c2.2,0,3.6,0.6,4.7,1.7c1,1.1,1.6,2.6,1.6,4.3c0,1.7-0.6,3.3-1.7,4.4
			c-1,1-2.3,1.6-4.6,1.6H29.7z M35.2,97.6c1.4,0,1.9-0.3,2.6-0.9c0.7-0.7,1.1-1.6,1.1-2.8c0-1.1-0.3-2.1-1-2.8
			c-0.6-0.6-1.2-0.9-2.6-0.9h-2.9v7.4H35.2z"/>
		<rect x="44.6" y="87.9" class="st3" width="2.6" height="11.9"/>
		<path class="st3" d="M62.7,97.8c-1.4,1.3-3.4,2.4-6.1,2.4c-4,0-6.6-2.8-6.6-6.3c0-3.4,2.6-6.3,6.5-6.3c2.2,0,4.3,0.9,5.8,2.1
			l-1.6,1.7c-1.1-0.9-2.6-1.5-3.9-1.5c-2.4,0-4,1.8-4,4.1c0,2.2,1.6,4.1,4.1,4.1c1.6,0,3.1-0.9,4.2-1.9L62.7,97.8z"/>
		<path class="st3" d="M69.4,87.9h2.2l5.5,11.9h-2.9l-1.1-2.5h-5.5l-1.1,2.5h-2.8L69.4,87.9z M68.6,95.3h3.7L70.5,91h-0.1L68.6,95.3
			z"/>
		<polygon class="st3" points="81.9,87.9 81.9,97.6 88.9,97.6 88.9,99.8 79.3,99.8 79.3,87.9 		"/>
		<polygon class="st3" points="97.9,87.9 97.9,98.4 105.4,98.4 105.4,99.8 96.3,99.8 96.3,87.9 		"/>
		<path class="st3" d="M107.4,99.8l5.5-11.9h1.5l5.5,11.9h-1.7l-1.6-3.6h-5.9l-1.6,3.6H107.4z M111.2,95h4.8l-2.4-5.2h-0.1L111.2,95
			z"/>
		<path class="st3" d="M122.7,99.8V87.9h6.9c1.3,0,2.3,0.4,2.9,1c0.5,0.5,0.8,1.1,0.8,1.9c0,1.1-0.7,2.2-1.7,2.5
			c1.4,0.3,2.3,1.5,2.3,3c0,0.9-0.3,1.7-1.1,2.5c-0.6,0.6-1.5,1-3.1,1H122.7z M124.3,89.3V93h5.4c0.6,0,1.1-0.2,1.4-0.5
			c0.4-0.4,0.6-0.9,0.6-1.4c0-0.5-0.2-0.9-0.5-1.2c-0.4-0.4-1-0.6-1.7-0.6H124.3z M124.3,94.3v4.1h5.6c0.7,0,1.4-0.2,1.8-0.7
			c0.4-0.4,0.6-0.9,0.6-1.4c0-0.5-0.2-1-0.6-1.3c-0.4-0.4-1-0.7-1.6-0.7H124.3z"/>
		<path class="st3" d="M143.3,87.6c3.7,0,6.6,2.8,6.6,6.2c0,3.5-3,6.3-6.6,6.3c-3.7,0-6.6-2.8-6.6-6.3
			C136.7,90.4,139.6,87.6,143.3,87.6 M143.3,98.7c2.8,0,5-2.2,5-4.9c0-2.7-2.2-4.8-5-4.8c-2.8,0-4.9,2.2-4.9,4.8
			C138.3,96.6,140.5,98.7,143.3,98.7"/>
	</g>
</g>
</svg>
